<?xml version="1.0" encoding="UTF-8" standalone="no"?>
<!DOCTYPE svg PUBLIC "-//W3C//DTD SVG 1.1//EN" "http://www.w3.org/Graphics/SVG/1.1/DTD/svg11.dtd">
<svg width="100%" height="100%" viewBox="0 0 370 370" version="1.1" xmlns="http://www.w3.org/2000/svg" xmlns:xlink="http://www.w3.org/1999/xlink" xml:space="preserve" xmlns:serif="http://www.serif.com/" style="fill-rule:evenodd;clip-rule:evenodd;stroke-linejoin:round;stroke-miterlimit:2;">
    <g transform="matrix(1.33333,0,0,1.33333,-4339.76,-1609.04)">
        <g transform="matrix(4.16667,0,0,4.16667,0,0)">
            <g transform="matrix(0.24,0,0,0.24,0,0)">
                <rect x="3294" y="1249" width="202" height="187" style="fill:white;"/>
            </g>
            <path d="M807.41,320.257C805.259,320.257 803.565,322.207 803.565,324.583C803.565,326.958 805.298,328.892 807.41,328.892C809.561,328.892 811.24,326.95 811.26,324.571C811.279,322.192 809.561,320.257 807.41,320.257Z" style="fill:rgb(74,101,175);fill-rule:nonzero;"/>
            <path d="M821.628,320.257C819.477,320.257 817.782,322.207 817.782,324.583C817.782,326.958 819.516,328.892 821.628,328.892C823.779,328.892 825.45,326.95 825.473,324.571C825.497,322.192 823.779,320.257 821.628,320.257Z" style="fill:rgb(74,101,175);fill-rule:nonzero;"/>
            <path d="M835.741,333.802C832.473,336.235 828.808,338.085 824.909,339.268C824.031,338.083 823.255,336.827 822.587,335.512C823.857,335.037 825.082,334.451 826.247,333.759C825.946,333.535 825.644,333.303 825.353,333.063C818.496,336.306 810.546,336.306 803.688,333.063C803.405,333.295 803.111,333.526 802.806,333.755C803.97,334.443 805.192,335.027 806.458,335.5C805.79,336.817 805.014,338.076 804.137,339.265C800.239,338.077 796.575,336.228 793.305,333.798C792.551,325.813 794.063,317.704 799.634,309.398C802.445,308.096 805.416,307.175 808.47,306.659C808.897,307.412 809.284,308.187 809.631,308.98C812.874,308.496 816.172,308.496 819.415,308.98C819.721,308.245 820.158,307.336 820.545,306.659C823.595,307.175 826.563,308.092 829.373,309.386C834.217,316.508 836.623,324.544 835.741,333.802ZM831.699,289.627L797.157,289.627C788.321,289.627 781.157,296.79 781.157,305.627L781.157,340.169C781.157,349.006 788.321,356.169 797.157,356.169L831.699,356.169C840.536,356.169 847.699,349.006 847.699,340.169L847.699,305.627C847.699,296.79 840.536,289.627 831.699,289.627Z" style="fill:rgb(74,101,175);fill-rule:nonzero;"/>
        </g>
    </g>
</svg>
