<?xml version="1.0" encoding="UTF-8" standalone="no"?>
<!DOCTYPE svg PUBLIC "-//W3C//DTD SVG 1.1//EN" "http://www.w3.org/Graphics/SVG/1.1/DTD/svg11.dtd">
<svg width="100%" height="100%" viewBox="0 0 370 370" version="1.1" xmlns="http://www.w3.org/2000/svg" xmlns:xlink="http://www.w3.org/1999/xlink" xml:space="preserve" xmlns:serif="http://www.serif.com/" style="fill-rule:evenodd;clip-rule:evenodd;stroke-linejoin:round;stroke-miterlimit:2;">
    <g transform="matrix(1.33333,0,0,1.33333,-577.244,-1609.04)">
        <g transform="matrix(4.16667,0,0,4.16667,0,0)">
            <g transform="matrix(0.249282,0,0,0.243636,-6.17238,-5.27273)">
                <rect x="484" y="1252" width="181" height="198" style="fill:white;"/>
            </g>
            <path d="M157.343,330.949C157.343,337.63 151.907,343.064 145.227,343.064L129.123,343.064C122.443,343.064 117.009,337.63 117.009,330.949L117.009,314.846C117.009,308.165 122.443,302.731 129.123,302.731L145.227,302.731C151.907,302.731 157.343,308.165 157.343,314.846L157.343,330.949ZM154.447,289.627L119.904,289.627C111.068,289.627 103.904,296.79 103.904,305.627L103.904,340.169C103.904,349.006 111.068,356.169 119.904,356.169L154.447,356.169C163.283,356.169 170.447,349.006 170.447,340.169L170.447,305.627C170.447,296.79 163.283,289.627 154.447,289.627ZM143.704,322.898C143.704,326.406 140.85,329.26 137.341,329.26C133.833,329.26 130.978,326.406 130.978,322.898C130.978,319.389 133.833,316.535 137.341,316.535C140.85,316.535 143.704,319.389 143.704,322.898ZM147.854,314.661C146.548,314.661 145.489,313.603 145.489,312.297C145.489,310.991 146.548,309.932 147.854,309.932C149.16,309.932 150.218,310.991 150.218,312.297C150.218,313.603 149.16,314.661 147.854,314.661ZM137.341,332.83C131.864,332.83 127.408,328.374 127.408,322.898C127.408,317.421 131.864,312.965 137.341,312.965C142.818,312.965 147.274,317.421 147.274,322.898C147.274,328.374 142.818,332.83 137.341,332.83ZM145.227,306.525L129.123,306.525C124.535,306.525 120.803,310.257 120.803,314.846L120.803,330.949C120.803,335.538 124.535,339.27 129.123,339.27L145.227,339.27C149.815,339.27 153.548,335.538 153.548,330.949L153.548,314.846C153.548,310.257 149.815,306.525 145.227,306.525Z" style="fill:url(#_Linear1);"/>
        </g>
    </g>
    <defs>
        <linearGradient id="_Linear1" x1="0" y1="0" x2="1" y2="0" gradientUnits="userSpaceOnUse" gradientTransform="matrix(60.4845,60.4845,-60.4845,60.4845,109.142,294.865)"><stop offset="0" style="stop-color:rgb(253,222,132);stop-opacity:1"/><stop offset="0.2" style="stop-color:rgb(253,184,72);stop-opacity:1"/><stop offset="0.3" style="stop-color:rgb(244,129,96);stop-opacity:1"/><stop offset="0.4" style="stop-color:rgb(240,87,129);stop-opacity:1"/><stop offset="0.5" style="stop-color:rgb(238,73,154);stop-opacity:1"/><stop offset="0.7" style="stop-color:rgb(133,80,160);stop-opacity:1"/><stop offset="0.8" style="stop-color:rgb(106,81,162);stop-opacity:1"/><stop offset="1" style="stop-color:rgb(75,90,168);stop-opacity:1"/></linearGradient>
    </defs>
</svg>
