<?xml version="1.0" encoding="UTF-8" standalone="no"?>
<!DOCTYPE svg PUBLIC "-//W3C//DTD SVG 1.1//EN" "http://www.w3.org/Graphics/SVG/1.1/DTD/svg11.dtd">
<svg width="100%" height="100%" viewBox="0 0 370 370" version="1.1" xmlns="http://www.w3.org/2000/svg" xmlns:xlink="http://www.w3.org/1999/xlink" xml:space="preserve" xmlns:serif="http://www.serif.com/" style="fill-rule:evenodd;clip-rule:evenodd;stroke-linejoin:round;stroke-miterlimit:2;">
    <g transform="matrix(1.33333,0,0,1.33333,-4749.09,-1649.04)">
        <g transform="matrix(4.16667,0,0,4.16667,0,0)">
            <g transform="matrix(0.24,0,0,0.24,73.68,7.2)">
                <path d="M3532.08,1273.26C3532.08,1236.57 3502.29,1206.78 3465.6,1206.78L3321.3,1206.78C3284.61,1206.78 3254.82,1236.57 3254.82,1273.26L3254.82,1417.56C3254.82,1454.25 3284.61,1484.04 3321.3,1484.04L3465.6,1484.04C3502.29,1484.04 3532.08,1454.25 3532.08,1417.56L3532.08,1273.26Z" style="fill:rgb(255,121,0);"/>
                <clipPath id="_clip1">
                    <path d="M3532.08,1273.26C3532.08,1236.57 3502.29,1206.78 3465.6,1206.78L3321.3,1206.78C3284.61,1206.78 3254.82,1236.57 3254.82,1273.26L3254.82,1417.56C3254.82,1454.25 3284.61,1484.04 3321.3,1484.04L3465.6,1484.04C3502.29,1484.04 3532.08,1454.25 3532.08,1417.56L3532.08,1273.26Z"/>
                </clipPath>
                <g clip-path="url(#_clip1)">
                    <g transform="matrix(1.65135,0,0,1.65135,2903.33,891.033)">
                        <path d="M352.058,243.91L337.724,222.218L255.869,222.218L241.535,243.91L241.535,255.293L241.537,255.293C241.537,255.298 241.535,255.301 241.535,255.307C241.535,260.742 246.485,265.15 252.586,265.15C258.69,265.15 263.64,260.742 263.64,255.307C263.64,260.742 268.587,265.15 274.689,265.15C280.793,265.15 285.744,260.742 285.744,255.307C285.744,260.742 290.692,265.15 296.795,265.15C302.899,265.15 307.848,260.742 307.848,255.307C307.848,260.742 312.798,265.15 318.901,265.15C325.005,265.15 329.952,260.742 329.952,255.307C329.952,260.742 334.902,265.15 341.005,265.15C347.108,265.15 352.058,260.742 352.058,255.307C352.058,255.302 352.056,255.299 352.056,255.293L352.058,255.293L352.058,243.91Z" style="fill:white;fill-rule:nonzero;"/>
                        <path d="M329.952,266.556C327.032,269.018 323.151,270.523 318.901,270.523C314.649,270.523 310.768,269.018 307.848,266.556C304.928,269.018 301.047,270.523 296.795,270.523C292.543,270.523 288.664,269.018 285.744,266.556C282.822,269.018 278.943,270.523 274.689,270.523C270.439,270.523 266.56,269.018 263.64,266.556C260.717,269.018 256.839,270.523 252.586,270.523C250.291,270.523 248.112,270.081 246.128,269.289L246.128,321.23L311.802,321.23L311.802,285.596L335.989,285.596L335.989,321.23L347.465,321.23L347.465,269.29C345.48,270.08 343.299,270.524 341.005,270.524C336.753,270.523 332.874,269.018 329.952,266.556ZM292.596,309.112L257.604,309.112L257.604,285.596L292.596,285.596L292.596,309.112Z" style="fill:white;fill-rule:nonzero;"/>
                        <g transform="matrix(1,0,0,1,0,-3.44282)">
                            <path d="M315.459,321.23L311.875,328.397L311.875,331.532L336.21,331.532L336.21,328.397L332.628,321.23L315.459,321.23Z" style="fill:white;fill-rule:nonzero;"/>
                        </g>
                    </g>
                </g>
            </g>
        </g>
    </g>
</svg>
