<?xml version="1.0" encoding="UTF-8" standalone="no"?>
<!DOCTYPE svg PUBLIC "-//W3C//DTD SVG 1.1//EN" "http://www.w3.org/Graphics/SVG/1.1/DTD/svg11.dtd">
<svg width="100%" height="100%" viewBox="0 0 370 370" version="1.1" xmlns="http://www.w3.org/2000/svg" xmlns:xlink="http://www.w3.org/1999/xlink" xml:space="preserve" xmlns:serif="http://www.serif.com/" style="fill-rule:evenodd;clip-rule:evenodd;stroke-linejoin:round;stroke-miterlimit:2;">
    <g transform="matrix(1.33333,0,0,1.33333,-2189.75,-1609.04)">
        <g transform="matrix(4.16667,0,0,4.16667,0,0)">
            <g transform="matrix(0.24,0,0,0.24,0,0)">
                <rect x="1689" y="1227" width="201" height="223" style="fill:white;"/>
            </g>
            <path d="M444.698,356.169L410.155,356.169C401.319,356.169 394.155,349.006 394.155,340.169L394.155,305.627C394.155,296.79 401.319,289.627 410.155,289.627L444.698,289.627C453.534,289.627 460.698,296.79 460.698,305.627L460.698,340.169C460.698,349.006 453.534,356.169 444.698,356.169ZM414.467,341.496C417.006,344.091 420.546,345.701 424.464,345.701C432.186,345.701 438.446,339.444 438.446,331.726L438.446,316.298C441.417,318.42 445.056,319.669 448.987,319.669L448.987,312.109L448.981,312.109C448.239,312.109 447.499,312.031 446.773,311.877L446.773,317.828C442.843,317.828 439.204,316.58 436.232,314.457L436.232,329.885C436.232,337.603 429.972,343.86 422.25,343.86C419.369,343.86 416.691,342.989 414.467,341.496ZM422.228,323.472C418.696,323.472 415.832,326.333 415.832,329.864C415.832,332.36 417.263,334.521 419.351,335.574C418.502,334.462 418.044,333.102 418.046,331.704C418.046,328.174 420.909,325.312 424.442,325.312C425.1,325.311 425.754,325.412 426.382,325.611L426.382,317.882C425.747,317.795 425.108,317.752 424.468,317.752C424.368,317.752 424.269,317.753 424.169,317.755L424.169,323.771C423.541,323.572 422.887,323.471 422.228,323.472ZM436.348,301.528C436.876,304.539 438.677,307.111 441.177,308.67C439.658,307.012 438.662,304.87 438.446,302.501L438.446,301.528L436.348,301.528ZM438.446,316.298L438.446,316.297L438.446,316.298Z" style="fill:url(#_Linear1);"/>
            <path d="M424.464,345.701C420.546,345.701 417.006,344.091 414.467,341.496C416.691,342.989 419.369,343.86 422.25,343.86C429.972,343.86 436.232,337.603 436.232,329.885L436.232,314.457C439.204,316.58 442.843,317.828 446.773,317.828L446.773,311.877C447.499,312.031 448.239,312.109 448.981,312.109L448.987,312.109L448.987,319.669C445.056,319.669 441.417,318.42 438.446,316.298L438.446,316.297L438.446,331.726C438.446,339.444 432.186,345.701 424.464,345.701ZM419.351,335.574C417.263,334.521 415.832,332.36 415.832,329.864C415.832,326.333 418.696,323.472 422.228,323.472C422.887,323.471 423.541,323.572 424.169,323.771L424.169,317.755C424.269,317.753 424.368,317.752 424.468,317.752C425.108,317.752 425.747,317.795 426.382,317.882L426.382,325.611C425.754,325.412 425.1,325.311 424.442,325.312C420.909,325.312 418.046,328.174 418.046,331.704C418.044,333.102 418.502,334.462 419.351,335.574ZM441.177,308.67C438.677,307.111 436.876,304.539 436.348,301.528L438.446,301.528L438.446,302.501C438.662,304.87 439.658,307.012 441.177,308.67Z" style="fill:url(#_Linear2);"/>
            <path d="M436.232,314.457C439.204,316.58 442.843,317.829 446.773,317.829L446.773,311.877C444.579,311.41 442.637,310.264 441.177,308.67C438.677,307.111 436.876,304.539 436.348,301.529L430.837,301.529L430.837,331.726C430.825,335.246 427.966,338.096 424.441,338.096C422.364,338.096 420.519,337.107 419.35,335.574C417.263,334.521 415.832,332.36 415.832,329.864C415.832,326.333 418.695,323.471 422.228,323.471C422.904,323.471 423.557,323.577 424.169,323.771L424.169,317.755C416.583,317.911 410.482,324.107 410.482,331.726C410.482,335.529 412.001,338.977 414.467,341.496C416.691,342.99 419.369,343.86 422.25,343.86C429.972,343.86 436.232,337.604 436.232,329.886L436.232,314.457Z" style="fill:white;"/>
            <path d="M424.169,317.755L424.169,316.041C423.533,315.955 422.892,315.911 422.251,315.912C414.528,315.911 408.268,322.168 408.268,329.885C408.268,334.724 410.728,338.988 414.467,341.496C412.001,338.977 410.482,335.529 410.482,331.726C410.482,324.107 416.583,317.911 424.169,317.755ZM436.348,301.529C436.297,301.241 436.259,300.951 436.232,300.661L436.232,299.688L428.623,299.688L428.623,329.885C428.611,333.405 425.753,336.256 422.228,336.256C421.193,336.256 420.216,336.011 419.35,335.574C420.519,337.107 422.364,338.096 424.441,338.096C427.966,338.096 430.825,335.246 430.837,331.726L430.837,301.529L436.348,301.529ZM446.773,311.877L446.773,310.268C444.795,310.271 442.855,309.717 441.177,308.67C442.662,310.296 444.619,311.417 446.773,311.877Z" style="fill:rgb(47,191,199);"/>
        </g>
    </g>
    <defs>
        <linearGradient id="_Linear1" x1="0" y1="0" x2="1" y2="0" gradientUnits="userSpaceOnUse" gradientTransform="matrix(66.5425,0,0,66.5425,394.155,322.898)"><stop offset="0" style="stop-color:rgb(27,19,72);stop-opacity:1"/><stop offset="1" style="stop-color:black;stop-opacity:1"/></linearGradient>
        <linearGradient id="_Linear2" x1="0" y1="0" x2="1" y2="0" gradientUnits="userSpaceOnUse" gradientTransform="matrix(66.5425,0,0,66.5425,394.155,322.898)"><stop offset="0" style="stop-color:rgb(212,29,91);stop-opacity:1"/><stop offset="1" style="stop-color:rgb(204,30,77);stop-opacity:1"/></linearGradient>
    </defs>
</svg>
